# xmcd CD database file
#
# Track frame offsets:
#	150
#	8484
#	20608
#	41350
#	62918
#	65147
#	82567
#	102316
#	128847
#	149792
#	158715
#	178960
#	205981
#	216048
#	236116
#	246775
#	252648
#	262509
#
# Disc length: 3675 seconds
#
# Revision: 0
# Processed by: cddbd v1.5.2PL0 Copyright (c) Steve Scherf et al.
# Submitted via: CDex 1.70beta2
#
DISCID=fe0e5912
DTITLE=Uri Caine - BedRock { plastic temptation
DYEAR=2009
DGENRE=Jazz
TTITLE0=Overture
TTITLE1=Prelude for Sheldon
TTITLE2=Noid
TTITLE3=Roll with It
TTITLE4=Duke Countdown
TTITLE5=Count Duke
TTITLE6=Riled up
TTITLE7=Till You come back to me
TTITLE8=Plastic Temptation
TTITLE9=Seven Year Clitch
TTITLE10=Work it out
TTITLE11=Mayor Goldie
TTITLE12=Victrola
TTITLE13=Lemonana Vasconcelos
TTITLE14=Ink Bladder
TTITLE15=Lunchmeat Concerto in Eb minor
TTITLE16=Garcia
TTITLE17=Organ Thunder
EXTD=YEAR: 2009
EXTT0=
EXTT1=
EXTT2=
EXTT3=
EXTT4=
EXTT5=
EXTT6=
EXTT7=
EXTT8=
EXTT9=
EXTT10=
EXTT11=
EXTT12=
EXTT13=
EXTT14=
EXTT15=
EXTT16=
EXTT17=
PLAYORDER=
